<?xml version="1.0" encoding="UTF-8"?>
<svg id="Section_3" xmlns="http://www.w3.org/2000/svg" version="1.1" viewBox="0 0 708.66 708.66">
  <!-- Generator: Adobe Illustrator 29.5.1, SVG Export Plug-In . SVG Version: 2.1.0 Build 141)  -->
  <defs>
    <style>
      .st0 {
        fill: #2c2214;
      }
    </style>
  </defs>
  <path class="st0" d="M379.2,684.12c-.21-4.21-.63-8.45-1.31-12.71-10.1-63.69-69.91-107.13-133.6-97.03-58.71,9.31-100.2,60.86-98.42,118.76l70.68-7.45-112.18,17.77h0l-23.01,3.65c-1.56.25-3,.8-4.28,1.57h147.32l154.8-24.55h0Z"/>
  <polygon class="st0" points="379.13 690.98 291.09 704.95 291.09 708.66 379.13 708.66 379.13 690.98"/>
  <path class="st0" d="M512.84,664.27c-49.55,0-83.87,14.95-103.63,44.4h207.92c-19.83-29.56-54.38-44.4-104.3-44.4h.01Z"/>
</svg>