<?xml version="1.0" encoding="UTF-8"?>
<svg id="Section_3" data-name="Section 3" xmlns="http://www.w3.org/2000/svg" viewBox="0 0 708.66 708.66">
  <defs>
    <style>
      .cls-1 {
        fill: #191f2c;
      }
    </style>
  </defs>
  <path class="cls-1" d="M379.2,684.12c-.21-4.21-.63-8.45-1.31-12.71-10.1-63.69-69.91-107.13-133.6-97.03-58.71,9.31-100.2,60.86-98.42,118.76l70.68-7.45-112.18,17.77h0s-23.01,3.65-23.01,3.65c-1.56.25-3,.8-4.28,1.57h147.32l154.8-24.55Z"/>
  <polygon class="cls-1" points="379.13 690.98 291.09 704.95 291.09 708.66 379.13 708.66 379.13 690.98"/>
  <path class="cls-1" d="M512.84,664.27c-49.55,0-83.87,14.95-103.63,44.4h207.92c-19.83-29.56-54.38-44.4-104.3-44.4Z"/>
</svg>