<?xml version="1.0" encoding="UTF-8"?>
<svg id="Camada_1" data-name="Camada 1" xmlns="http://www.w3.org/2000/svg" viewBox="0 0 708.66 708.66">
  <defs>
    <style>
      .cls-1 {
        fill: #2c2214;
      }

      .cls-1, .cls-2 {
        fill-rule: evenodd;
      }

      .cls-2 {
        fill: #d7a003;
      }

      .cls-3 {
        fill: #fdfdfe;
      }
    </style>
  </defs>
  <rect class="cls-3" width="708.66" height="708.66"/>
  <path class="cls-2" d="M433.08,472.15c-.52-8.4-7.13-10.33-14.58-10.33-10.19,0-14.02,4.25-13.68,9.96.76,12.32,19.58,7.22,20.1,12.65.19,2.03-3.21,2.36-6.32,2.36s-5.99-1.18-5.99-3.92h-8.21c0,8.68,7.88,10.33,14.91,10.33,4.58,0,13.73-.28,13.73-8.45.05-12.55-19.91-7.79-20.24-13.73-.09-2.17,2.93-2.83,5.9-2.69,2.93.14,5.76.19,6.32,3.82h8.07ZM399.65,492.91v-6.51l-16.7.05v-5.9h15.05v-5.9h-15.05v-5.9h16.09v-6.47h-24.3v30.63h24.92ZM387.34,459.93l9.91-5.43h-8.64l-5.99,5.43h4.72ZM366.36,462.29h-8.16v22.6l-10.85-22.6h-12.55v30.63h8.16v-22.23l10.9,22.23h12.51v-30.63ZM311.32,486.64c-5.14,0-9.06-1.98-9.06-9.06s3.92-9.06,9.06-9.06,9.06,2.03,9.06,9.06-3.87,9.06-9.06,9.06ZM294.05,477.58c0,11.51,8.21,15.67,17.27,15.67s17.27-4.11,17.27-15.67-8.07-15.67-17.27-15.67-17.27,4.2-17.27,15.67ZM268.21,480.5h8.3c2.27,0,4.01,1.23,4.01,3.16,0,2.88-1.79,3.02-4.01,3.02h-8.3v-6.18ZM268.21,468.56l7.27-.05c2.03,0,3.87.66,3.87,3.21,0,3.82-1.51,3.54-3.63,3.54h-7.5v-6.7ZM276.66,492.91c5.8,0,12.03-1.23,12.03-7.93,0-5.62-3.68-6.7-8.78-7.03v-.24c4.67,0,7.22-2.26,7.27-6.23.14-7.08-5.8-9.2-11.33-9.2h-15.86v30.63h16.66Z"/>
  <path class="cls-2" d="M269.12,219.79c42.62-6.76,82.64,22.31,89.4,64.93.45,2.85.74,5.69.88,8.51l-147.65,23.41-5.76.91-43.39,6.88c-4.35.69-8.48-2.31-9.17-6.66-.69-4.35,2.31-8.48,6.66-9.17l15.4-2.44h0s75.07-11.89,75.07-11.89l-47.29,4.99c-1.19-38.74,26.57-73.24,65.86-79.47"/>
  <path class="cls-1" d="M359.35,357.41v-59.59l-58.92,9.34v66.11c0,9.65-7.9,17.55-17.55,17.55s-17.55-7.9-17.55-17.55v-60.55l-58.92,9.34v40.65c0,40.14,32.84,72.98,72.98,72.98h6.98c40.14,0,72.98-32.84,72.98-72.98v-5.31Z"/>
  <path class="cls-1" d="M448.82,321.3c-9.96,0-22.98,1.11-30.3,8.81-7.76,8.17-8.8,23.2-8.8,33.8s1.05,26.36,8.88,34.81c7.29,7.86,20.16,9.03,30.21,9.03s23.37-1.1,30.73-9.03c7.8-8.41,8.78-24.01,8.78-34.81s-.97-25.67-8.7-33.8c-7.38-7.76-20.79-8.81-30.81-8.81M497,435.89l12.02,5.29v44.77l-101.4-43.82c-32.73-13.63-41.74-44.98-41.74-78.02,0-55.64,26.93-84.17,82.93-84.17s83.35,28.16,83.35,84.17c0,32.51-10.53,58-35.17,71.78Z"/>
</svg>