<?xml version="1.0" encoding="UTF-8"?>
<svg id="Section_3" xmlns="http://www.w3.org/2000/svg" version="1.1" viewBox="0 0 708.66 708.66">
  <!-- Generator: Adobe Illustrator 29.5.1, SVG Export Plug-In . SVG Version: 2.1.0 Build 141)  -->
  <defs>
    <style>
      .st0 {
        fill: #2c2214;
      }
    </style>
  </defs>
  <path class="st0" d="M259.65,60.63h10.43c42.61,0,79.72-24.78,97.63-60.63h-205.7c17.92,35.85,55.02,60.63,97.63,60.63h.01Z"/>
  <path class="st0" d="M558.76,5.37c-10.99,11.85-30.81,13.49-45.92,13.49s-34.25-1.74-45.15-13.49C466.18,3.74,464.84,1.94,463.65,0h-69.76c7.45,30.59,24.3,56.48,57.38,70.26l151.54,65.49v-66.91l-17.96-7.91c24.09-13.47,39.15-34.43,46.69-60.92h-68.75c-1.18,1.94-2.52,3.75-4.02,5.37h0Z"/>
</svg>